<svg width="362" height="195" viewBox="0 0 362 195" fill="none" xmlns="http://www.w3.org/2000/svg">
<g filter="url(#filter0_d_18_28)">
<path d="M320.938 75.5L320.9 70.5001L320.938 75.5ZM59.4377 75.5L59.4505 70.5L59.4377 75.5ZM127.973 153.036C129.926 151.083 129.926 147.917 127.973 145.964L96.1534 114.145C94.2008 112.192 91.035 112.192 89.0823 114.145C87.1297 116.097 87.1297 119.263 89.0823 121.216L117.367 149.5L89.0823 177.784C87.1297 179.737 87.1297 182.903 89.0823 184.855C91.035 186.808 94.2008 186.808 96.1534 184.855L127.973 153.036ZM233.438 5V10H320.938V5V0H233.438V5ZM320.938 5V10C330.022 10 336.454 13.6777 340.708 19.0692C345.069 24.5971 347.334 32.2067 347.25 40.0811C347.167 47.9532 344.737 55.6325 340.29 61.2514C335.938 66.7509 329.556 70.4351 320.9 70.5001L320.938 75.5L320.975 80.4999C332.82 80.4108 342 75.2054 348.132 67.4572C354.169 59.8285 357.146 49.9021 357.25 40.1877C357.353 30.4756 354.588 20.518 348.558 12.8754C342.421 5.09626 333.104 0 320.938 0V5ZM320.938 75.5L320.9 70.5001C267.731 70.8999 124.46 70.6667 59.4505 70.5L59.4377 75.5L59.4249 80.5C124.415 80.6666 267.744 80.9001 320.975 80.4999L320.938 75.5ZM59.4377 75.5L59.4505 70.5C23.8767 70.4088 3.92543 90.2946 4.0002 112.452C4.07482 134.564 24.1002 154.5 59.4377 154.5V149.5V144.5C27.7751 144.5 14.0505 127.35 14.0001 112.418C13.9499 97.5323 27.4986 80.4181 59.4249 80.5L59.4377 75.5ZM59.4377 149.5V154.5H124.438V149.5V144.5H59.4377V149.5Z" fill="url(#paint0_linear_18_28)"/>
</g>
<defs>
<filter id="filter0_d_18_28" x="0" y="0" width="361.253" height="194.32" filterUnits="userSpaceOnUse" color-interpolation-filters="sRGB">
<feFlood flood-opacity="0" result="BackgroundImageFix"/>
<feColorMatrix in="SourceAlpha" type="matrix" values="0 0 0 0 0 0 0 0 0 0 0 0 0 0 0 0 0 0 127 0" result="hardAlpha"/>
<feOffset dy="4"/>
<feGaussianBlur stdDeviation="2"/>
<feComposite in2="hardAlpha" operator="out"/>
<feColorMatrix type="matrix" values="0 0 0 0 0 0 0 0 0 0 0 0 0 0 0 0 0 0 0.25 0"/>
<feBlend mode="normal" in2="BackgroundImageFix" result="effect1_dropShadow_18_28"/>
<feBlend mode="normal" in="SourceGraphic" in2="effect1_dropShadow_18_28" result="shape"/>
</filter>
<linearGradient id="paint0_linear_18_28" x1="180.626" y1="5" x2="180.626" y2="149.5" gradientUnits="userSpaceOnUse">
<stop offset="0.4" stop-color="#F2CA46"/>
<stop offset="0.6" stop-color="#FCF1CF"/>
</linearGradient>
</defs>
</svg>
